<svg xmlns="http://www.w3.org/2000/svg" viewBox="0 0 640 400" width="640" height="400" role="img" aria-label="antimatter-dimensions cover art">
  <defs>
    <linearGradient id="bg" x1="0" y1="0" x2="1" y2="1">
      <stop offset="0%" stop-color="#0f0d1f"/>
      <stop offset="100%" stop-color="#05040a"/>
    </linearGradient>
    <radialGradient id="glow" cx="72%" cy="46%" r="62%">
      <stop offset="0%" stop-color="#7c6cff" stop-opacity="0.30"/>
      <stop offset="100%" stop-color="#7c6cff" stop-opacity="0"/>
    </radialGradient>
    <clipPath id="frame"><rect width="640" height="400"/></clipPath>
  </defs>
  <g clip-path="url(#frame)">
    <rect width="640" height="400" fill="url(#bg)"/>
    <rect width="640" height="400" fill="url(#glow)"/>
    <polyline points="60,370 69.35483870967742,369.9987780921946 78.70967741935485,369.9895231331239 88.06451612903226,369.9631774103097 97.41935483870968,369.91016937689335 106.7741935483871,369.8205904931312 116.12903225806451,369.68427620438456 125.48387096774194,369.49085396844805 134.83870967741936,369.22977537624973 144.19354838709677,368.8903392666052 153.5483870967742,368.46170921289036 162.90322580645162,367.93292724394126 172.25806451612902,367.2929249149453 181.61290322580646,366.5305324395144 190.96774193548387,365.63448635861585 200.32258064516128,364.5934360770268 209.67741935483872,363.3959495045798 219.03225806451613,362.03051797702136 228.38709677419357,360.48556058823146 237.74193548387098,358.7494280350326 247.09677419354838,356.81040605369446 256.4516129032258,354.65671851087245 265.80645161290323,352.27653019939606 275.1612903225806,349.6579493798977 284.51612903225805,346.7890301019613 293.8709677419355,343.65777433272785 303.2258064516129,340.25213391632775 312.58064516129036,336.5600123838516 321.93548387096774,332.56926663059414 331.2903225806451,328.2677084748847 340.64516129032256,323.6431061108095 350,318.6831854654756 359.35483870967744,313.3756314700714 368.7096774193548,307.7080892528157 378.06451612903226,301.66816526089167 387.4193548387097,295.2434283176271 396.77419354838713,288.4214106204567 406.1290322580645,281.1896086845864 415.48387096774195,273.5354842367451 424.83870967741933,265.44646506294407 434.19354838709677,256.9099458137628 443.54838709677415,247.91328877032643 452.9032258064516,238.4438245738299 462.2580645161291,228.48885292119377 471.61290322580646,218.03564322919416 480.9677419354839,207.07143526919634 490.3225806451613,195.58343977443477 499.6774193548387,183.55883902161025 509.0322580645161,170.98478738842743 518.3870967741935,157.84841188855896 527.741935483871,144.13681268540248 537.0967741935484,129.83706358588776 546.4516129032259,114.93621251549328 555.8064516129032,99.42128197554058 565.1612903225807,83.27926948375858 574.516129032258,66.49714799903325 583.8709677419355,49.061866331193016 593.2258064516129,30.96034953662047 602.5806451612902,12.179499300425448 611.9354838709678,-7.293805694136665 621.2903225806451,-27.472709408361368 630.6451612903226,-48.370378102312486 640,-70" fill="none" stroke="#7c6cff" stroke-width="9" stroke-linecap="round" opacity="0.92"/>
    <line x1="60" y1="308" x2="600" y2="308" stroke="#7c6cff" stroke-width="1.5" opacity="0.12"/>
    <line x1="60" y1="246" x2="600" y2="246" stroke="#7c6cff" stroke-width="1.5" opacity="0.12"/>
    <line x1="60" y1="184" x2="600" y2="184" stroke="#7c6cff" stroke-width="1.5" opacity="0.12"/>
    <line x1="60" y1="122" x2="600" y2="122" stroke="#7c6cff" stroke-width="1.5" opacity="0.12"/>
    <line x1="60" y1="60" x2="600" y2="60" stroke="#7c6cff" stroke-width="1.5" opacity="0.12"/>
    <text x="40" y="362" font-family="Archivo, Arial Narrow, sans-serif" font-size="132"
          font-weight="800" fill="#ffffff" opacity="0.10" letter-spacing="-6">AD</text>
  </g>
</svg>