<svg xmlns="http://www.w3.org/2000/svg" viewBox="0 0 640 400" width="640" height="400" role="img" aria-label="neon-serpent cover art">
  <defs>
    <linearGradient id="bg" x1="0" y1="0" x2="1" y2="1">
      <stop offset="0%" stop-color="#061b19"/>
      <stop offset="100%" stop-color="#020908"/>
    </linearGradient>
    <radialGradient id="glow" cx="72%" cy="46%" r="62%">
      <stop offset="0%" stop-color="#35e0d4" stop-opacity="0.30"/>
      <stop offset="100%" stop-color="#35e0d4" stop-opacity="0"/>
    </radialGradient>
    <clipPath id="frame"><rect width="640" height="400"/></clipPath>
  </defs>
  <g clip-path="url(#frame)">
    <rect width="640" height="400" fill="url(#bg)"/>
    <rect width="640" height="400" fill="url(#glow)"/>
    <rect x="200" y="96" width="39" height="39" rx="3" fill="#35e0d4" opacity="0.06"/>
    <rect x="200" y="140" width="39" height="39" rx="3" fill="#35e0d4" opacity="0.06"/>
    <rect x="200" y="184" width="39" height="39" rx="3" fill="#35e0d4" opacity="0.06"/>
    <rect x="200" y="228" width="39" height="39" rx="3" fill="#35e0d4" opacity="0.06"/>
    <rect x="200" y="272" width="39" height="39" rx="3" fill="#35e0d4" opacity="0.06"/>
    <rect x="200" y="316" width="39" height="39" rx="3" fill="#35e0d4" opacity="0.06"/>
    <rect x="244" y="96" width="39" height="39" rx="3" fill="#35e0d4" opacity="0.06"/>
    <rect x="244" y="140" width="39" height="39" rx="3" fill="#35e0d4" opacity="0.06"/>
    <rect x="244" y="184" width="39" height="39" rx="3" fill="#35e0d4" opacity="0.06"/>
    <rect x="244" y="228" width="39" height="39" rx="3" fill="#35e0d4" opacity="0.06"/>
    <rect x="244" y="272" width="39" height="39" rx="3" fill="#35e0d4" opacity="0.06"/>
    <rect x="244" y="316" width="39" height="39" rx="3" fill="#35e0d4" opacity="0.06"/>
    <rect x="288" y="96" width="39" height="39" rx="3" fill="#35e0d4" opacity="0.06"/>
    <rect x="288" y="140" width="39" height="39" rx="3" fill="#35e0d4" opacity="0.06"/>
    <rect x="288" y="184" width="39" height="39" rx="3" fill="#35e0d4" opacity="0.06"/>
    <rect x="288" y="228" width="39" height="39" rx="3" fill="#35e0d4" opacity="0.06"/>
    <rect x="288" y="272" width="39" height="39" rx="3" fill="#35e0d4" opacity="0.06"/>
    <rect x="288" y="316" width="39" height="39" rx="3" fill="#35e0d4" opacity="0.06"/>
    <rect x="332" y="96" width="39" height="39" rx="3" fill="#35e0d4" opacity="0.06"/>
    <rect x="332" y="140" width="39" height="39" rx="3" fill="#35e0d4" opacity="0.06"/>
    <rect x="332" y="184" width="39" height="39" rx="3" fill="#35e0d4" opacity="0.06"/>
    <rect x="332" y="228" width="39" height="39" rx="3" fill="#35e0d4" opacity="0.06"/>
    <rect x="332" y="272" width="39" height="39" rx="3" fill="#35e0d4" opacity="0.06"/>
    <rect x="332" y="316" width="39" height="39" rx="3" fill="#35e0d4" opacity="0.06"/>
    <rect x="376" y="96" width="39" height="39" rx="3" fill="#35e0d4" opacity="0.06"/>
    <rect x="376" y="140" width="39" height="39" rx="3" fill="#35e0d4" opacity="0.06"/>
    <rect x="376" y="184" width="39" height="39" rx="3" fill="#35e0d4" opacity="0.06"/>
    <rect x="376" y="228" width="39" height="39" rx="3" fill="#35e0d4" opacity="0.06"/>
    <rect x="376" y="272" width="39" height="39" rx="3" fill="#35e0d4" opacity="0.06"/>
    <rect x="376" y="316" width="39" height="39" rx="3" fill="#35e0d4" opacity="0.06"/>
    <rect x="420" y="96" width="39" height="39" rx="3" fill="#35e0d4" opacity="0.06"/>
    <rect x="420" y="140" width="39" height="39" rx="3" fill="#35e0d4" opacity="0.06"/>
    <rect x="420" y="184" width="39" height="39" rx="3" fill="#35e0d4" opacity="0.06"/>
    <rect x="420" y="228" width="39" height="39" rx="3" fill="#35e0d4" opacity="0.06"/>
    <rect x="420" y="272" width="39" height="39" rx="3" fill="#35e0d4" opacity="0.06"/>
    <rect x="420" y="316" width="39" height="39" rx="3" fill="#35e0d4" opacity="0.06"/>
    <rect x="464" y="96" width="39" height="39" rx="3" fill="#35e0d4" opacity="0.06"/>
    <rect x="464" y="140" width="39" height="39" rx="3" fill="#35e0d4" opacity="0.06"/>
    <rect x="464" y="184" width="39" height="39" rx="3" fill="#35e0d4" opacity="0.06"/>
    <rect x="464" y="228" width="39" height="39" rx="3" fill="#35e0d4" opacity="0.06"/>
    <rect x="464" y="272" width="39" height="39" rx="3" fill="#35e0d4" opacity="0.06"/>
    <rect x="464" y="316" width="39" height="39" rx="3" fill="#35e0d4" opacity="0.06"/>
    <rect x="508" y="96" width="39" height="39" rx="3" fill="#35e0d4" opacity="0.06"/>
    <rect x="508" y="140" width="39" height="39" rx="3" fill="#35e0d4" opacity="0.06"/>
    <rect x="508" y="184" width="39" height="39" rx="3" fill="#35e0d4" opacity="0.06"/>
    <rect x="508" y="228" width="39" height="39" rx="3" fill="#35e0d4" opacity="0.06"/>
    <rect x="508" y="272" width="39" height="39" rx="3" fill="#35e0d4" opacity="0.06"/>
    <rect x="508" y="316" width="39" height="39" rx="3" fill="#35e0d4" opacity="0.06"/>
    <rect x="552" y="96" width="39" height="39" rx="3" fill="#35e0d4" opacity="0.06"/>
    <rect x="552" y="140" width="39" height="39" rx="3" fill="#35e0d4" opacity="0.06"/>
    <rect x="552" y="184" width="39" height="39" rx="3" fill="#35e0d4" opacity="0.06"/>
    <rect x="552" y="228" width="39" height="39" rx="3" fill="#35e0d4" opacity="0.06"/>
    <rect x="552" y="272" width="39" height="39" rx="3" fill="#35e0d4" opacity="0.06"/>
    <rect x="552" y="316" width="39" height="39" rx="3" fill="#35e0d4" opacity="0.06"/>
    <rect x="200" y="272" width="39" height="39" rx="3" fill="#35e0d4" opacity="0.28"/>
    <rect x="244" y="272" width="39" height="39" rx="3" fill="#35e0d4" opacity="0.33230769230769236"/>
    <rect x="288" y="272" width="39" height="39" rx="3" fill="#35e0d4" opacity="0.38461538461538464"/>
    <rect x="288" y="228" width="39" height="39" rx="3" fill="#35e0d4" opacity="0.43692307692307697"/>
    <rect x="288" y="184" width="39" height="39" rx="3" fill="#35e0d4" opacity="0.48923076923076925"/>
    <rect x="332" y="184" width="39" height="39" rx="3" fill="#35e0d4" opacity="0.5415384615384615"/>
    <rect x="376" y="184" width="39" height="39" rx="3" fill="#35e0d4" opacity="0.5938461538461539"/>
    <rect x="376" y="140" width="39" height="39" rx="3" fill="#35e0d4" opacity="0.6461538461538462"/>
    <rect x="420" y="140" width="39" height="39" rx="3" fill="#35e0d4" opacity="0.6984615384615385"/>
    <rect x="464" y="140" width="39" height="39" rx="3" fill="#35e0d4" opacity="0.7507692307692309"/>
    <rect x="464" y="184" width="39" height="39" rx="3" fill="#35e0d4" opacity="0.8030769230769231"/>
    <rect x="464" y="228" width="39" height="39" rx="3" fill="#35e0d4" opacity="0.8553846153846154"/>
    <rect x="508" y="228" width="39" height="39" rx="3" fill="#35e0d4" opacity="0.9076923076923078"/>
    <circle cx="571" cy="335" r="9" fill="#35e0d4"/>
    <text x="40" y="362" font-family="Archivo, Arial Narrow, sans-serif" font-size="132"
          font-weight="800" fill="#ffffff" opacity="0.10" letter-spacing="-6">NS</text>
  </g>
</svg>