<svg xmlns="http://www.w3.org/2000/svg" viewBox="0 0 1280 720" width="1280" height="720">
  <rect width="1280" height="720" fill="#111506"/>
    <radialGradient id="g" cx="72%" cy="18%" r="75%">
      <stop offset="0%" stop-color="#a8d13c" stop-opacity="0.32"/>
      <stop offset="100%" stop-color="#a8d13c" stop-opacity="0"/>
    </radialGradient>
    <rect width="1280" height="720" fill="url(#g)"/>
  
    <ellipse cx="640" cy="308.88" rx="105.84000000000002" ry="72.57600000000001" fill="#a8d13c" opacity="0.85"/>
    <circle cx="712.576" cy="228.24" r="52.41600000000001" fill="#a8d13c"/>
    <circle cx="726.688" cy="215.13600000000002" r="10.080000000000002" fill="#1f2714"/>
    <path d="M 758.944 231.264 L 813.376 243.36 L 756.928 261.504 Z" fill="#e0a53d"/>
     <text x="115.19999999999999" y="108" font-family="Archivo, Arial Narrow, sans-serif" font-weight="800" font-size="64" fill="#eef5dc">DUCK LIFE</text>
     <text x="115.19999999999999" y="161.76" font-family="IBM Plex Mono, ui-monospace, monospace" font-size="26.880000000000003" fill="#a8d13c">train it, race it, win the cup</text>
     <text x="128" y="423.36" font-family="IBM Plex Mono, ui-monospace, monospace" font-size="25.6" fill="#9aa87a">running</text>
        <rect x="128" y="432" width="1024" height="12.959999999999999" rx="6.4799999999999995" fill="#2b3320"/>
        <rect x="128" y="432" width="880.64" height="12.959999999999999" rx="6.4799999999999995" fill="#a8d13c" opacity="0.8940000000000001"/><text x="128" y="477.36" font-family="IBM Plex Mono, ui-monospace, monospace" font-size="25.6" fill="#9aa87a">flying</text>
        <rect x="128" y="486" width="1024" height="12.959999999999999" rx="6.4799999999999995" fill="#2b3320"/>
        <rect x="128" y="486" width="634.88" height="12.959999999999999" rx="6.4799999999999995" fill="#a8d13c" opacity="0.798"/><text x="128" y="531.36" font-family="IBM Plex Mono, ui-monospace, monospace" font-size="25.6" fill="#9aa87a">swimming</text>
        <rect x="128" y="540" width="1024" height="12.959999999999999" rx="6.4799999999999995" fill="#2b3320"/>
        <rect x="128" y="540" width="419.84" height="12.959999999999999" rx="6.4799999999999995" fill="#a8d13c" opacity="0.7140000000000001"/><text x="128" y="585.36" font-family="IBM Plex Mono, ui-monospace, monospace" font-size="25.6" fill="#9aa87a">jumping</text>
        <rect x="128" y="594" width="1024" height="12.959999999999999" rx="6.4799999999999995" fill="#2b3320"/>
        <rect x="128" y="594" width="747.52" height="12.959999999999999" rx="6.4799999999999995" fill="#a8d13c" opacity="0.8420000000000001"/>
</svg>