<svg xmlns="http://www.w3.org/2000/svg" viewBox="0 0 1280 720" width="1280" height="720">
  <rect width="1280" height="720" fill="#070d17"/>
    <radialGradient id="g" cx="72%" cy="18%" r="75%">
      <stop offset="0%" stop-color="#4a86e8" stop-opacity="0.32"/>
      <stop offset="100%" stop-color="#4a86e8" stop-opacity="0"/>
    </radialGradient>
    <rect width="1280" height="720" fill="url(#g)"/>
  <text x="128" y="108" font-family="Archivo, Arial Narrow, sans-serif" font-weight="800" font-size="61.44" fill="#dfe8f7">MICROPOLIS</text>
     <text x="128" y="159.2" font-family="IBM Plex Mono, ui-monospace, monospace" font-size="26.880000000000003" fill="#4a86e8">Pop. 41,220 · Funds $18,400 · R C I</text>
     <line x1="128" y1="230.4" x2="1152" y2="230.4" stroke="#1d2a3d" stroke-width="1.5"/><line x1="128" y1="281.8285714285714" x2="1152" y2="281.8285714285714" stroke="#1d2a3d" stroke-width="1.5"/><line x1="128" y1="333.25714285714287" x2="1152" y2="333.25714285714287" stroke="#1d2a3d" stroke-width="1.5"/><line x1="128" y1="384.6857142857143" x2="1152" y2="384.6857142857143" stroke="#1d2a3d" stroke-width="1.5"/><line x1="128" y1="436.11428571428576" x2="1152" y2="436.11428571428576" stroke="#1d2a3d" stroke-width="1.5"/><line x1="128" y1="487.5428571428572" x2="1152" y2="487.5428571428572" stroke="#1d2a3d" stroke-width="1.5"/><line x1="128" y1="538.9714285714285" x2="1152" y2="538.9714285714285" stroke="#1d2a3d" stroke-width="1.5"/><line x1="128" y1="590.4" x2="1152" y2="590.4" stroke="#1d2a3d" stroke-width="1.5"/><line x1="128" y1="230.4" x2="128" y2="590.4" stroke="#1d2a3d" stroke-width="1.5"/><line x1="241.77777777777777" y1="230.4" x2="241.77777777777777" y2="590.4" stroke="#1d2a3d" stroke-width="1.5"/><line x1="355.55555555555554" y1="230.4" x2="355.55555555555554" y2="590.4" stroke="#1d2a3d" stroke-width="1.5"/><line x1="469.3333333333333" y1="230.4" x2="469.3333333333333" y2="590.4" stroke="#1d2a3d" stroke-width="1.5"/><line x1="583.1111111111111" y1="230.4" x2="583.1111111111111" y2="590.4" stroke="#1d2a3d" stroke-width="1.5"/><line x1="696.8888888888889" y1="230.4" x2="696.8888888888889" y2="590.4" stroke="#1d2a3d" stroke-width="1.5"/><line x1="810.6666666666666" y1="230.4" x2="810.6666666666666" y2="590.4" stroke="#1d2a3d" stroke-width="1.5"/><line x1="924.4444444444443" y1="230.4" x2="924.4444444444443" y2="590.4" stroke="#1d2a3d" stroke-width="1.5"/><line x1="1038.2222222222222" y1="230.4" x2="1038.2222222222222" y2="590.4" stroke="#1d2a3d" stroke-width="1.5"/><line x1="1152" y1="230.4" x2="1152" y2="590.4" stroke="#1d2a3d" stroke-width="1.5"/><rect x="255.4311111111111" y="263.8285714285714" width="86.47111111111111" height="18" rx="2" fill="#e0b13d" opacity="0.28"/><rect x="369.20888888888885" y="263.8285714285714" width="86.47111111111111" height="18" rx="2" fill="#3fb98a" opacity="0.28"/><rect x="596.7644444444444" y="250.45714285714286" width="86.47111111111111" height="31.371428571428574" rx="2" fill="#3fb98a" opacity="0.54"/><rect x="710.5422222222222" y="250.45714285714286" width="86.47111111111111" height="31.371428571428574" rx="2" fill="#4a86e8" opacity="0.54"/><rect x="824.3199999999999" y="237.0857142857143" width="86.47111111111111" height="44.74285714285715" rx="2" fill="#3fb98a" opacity="0.8"/><rect x="938.0977777777777" y="237.0857142857143" width="86.47111111111111" height="44.74285714285715" rx="2" fill="#4a86e8" opacity="0.8"/><rect x="141.65333333333334" y="308.57142857142856" width="86.47111111111111" height="24.685714285714287" rx="2" fill="#e0b13d" opacity="0.41000000000000003"/><rect x="255.4311111111111" y="295.2" width="86.47111111111111" height="38.05714285714286" rx="2" fill="#4a86e8" opacity="0.67"/><rect x="369.20888888888885" y="295.2" width="86.47111111111111" height="38.05714285714286" rx="2" fill="#e0b13d" opacity="0.67"/><rect x="596.7644444444444" y="315.25714285714287" width="86.47111111111111" height="18" rx="2" fill="#e0b13d" opacity="0.28"/><rect x="710.5422222222222" y="315.25714285714287" width="86.47111111111111" height="18" rx="2" fill="#3fb98a" opacity="0.28"/><rect x="938.0977777777777" y="301.8857142857143" width="86.47111111111111" height="31.371428571428574" rx="2" fill="#3fb98a" opacity="0.54"/><rect x="1051.8755555555556" y="301.8857142857143" width="86.47111111111111" height="31.371428571428574" rx="2" fill="#4a86e8" opacity="0.54"/><rect x="141.65333333333334" y="339.9428571428572" width="86.47111111111111" height="44.74285714285715" rx="2" fill="#4a86e8" opacity="0.8"/><rect x="369.20888888888885" y="360" width="86.47111111111111" height="24.685714285714287" rx="2" fill="#4a86e8" opacity="0.41000000000000003"/><rect x="482.9866666666666" y="360" width="86.47111111111111" height="24.685714285714287" rx="2" fill="#e0b13d" opacity="0.41000000000000003"/><rect x="596.7644444444444" y="346.62857142857143" width="86.47111111111111" height="38.05714285714286" rx="2" fill="#4a86e8" opacity="0.67"/><rect x="710.5422222222222" y="346.62857142857143" width="86.47111111111111" height="38.05714285714286" rx="2" fill="#e0b13d" opacity="0.67"/><rect x="938.0977777777777" y="366.6857142857143" width="86.47111111111111" height="18" rx="2" fill="#e0b13d" opacity="0.28"/><rect x="1051.8755555555556" y="366.6857142857143" width="86.47111111111111" height="18" rx="2" fill="#3fb98a" opacity="0.28"/><rect x="141.65333333333334" y="404.7428571428572" width="86.47111111111111" height="31.371428571428574" rx="2" fill="#3fb98a" opacity="0.54"/><rect x="255.4311111111111" y="404.7428571428572" width="86.47111111111111" height="31.371428571428574" rx="2" fill="#4a86e8" opacity="0.54"/><rect x="369.20888888888885" y="391.3714285714286" width="86.47111111111111" height="44.74285714285715" rx="2" fill="#3fb98a" opacity="0.8"/><rect x="482.9866666666666" y="391.3714285714286" width="86.47111111111111" height="44.74285714285715" rx="2" fill="#4a86e8" opacity="0.8"/><rect x="710.5422222222222" y="411.42857142857144" width="86.47111111111111" height="24.685714285714287" rx="2" fill="#4a86e8" opacity="0.41000000000000003"/><rect x="824.3199999999999" y="411.42857142857144" width="86.47111111111111" height="24.685714285714287" rx="2" fill="#e0b13d" opacity="0.41000000000000003"/><rect x="938.0977777777777" y="398.0571428571429" width="86.47111111111111" height="38.05714285714286" rx="2" fill="#4a86e8" opacity="0.67"/><rect x="1051.8755555555556" y="398.0571428571429" width="86.47111111111111" height="38.05714285714286" rx="2" fill="#e0b13d" opacity="0.67"/><rect x="141.65333333333334" y="469.5428571428572" width="86.47111111111111" height="18" rx="2" fill="#e0b13d" opacity="0.28"/><rect x="255.4311111111111" y="469.5428571428572" width="86.47111111111111" height="18" rx="2" fill="#3fb98a" opacity="0.28"/><rect x="482.9866666666666" y="456.17142857142863" width="86.47111111111111" height="31.371428571428574" rx="2" fill="#3fb98a" opacity="0.54"/><rect x="596.7644444444444" y="456.17142857142863" width="86.47111111111111" height="31.371428571428574" rx="2" fill="#4a86e8" opacity="0.54"/><rect x="710.5422222222222" y="442.80000000000007" width="86.47111111111111" height="44.74285714285715" rx="2" fill="#3fb98a" opacity="0.8"/><rect x="824.3199999999999" y="442.80000000000007" width="86.47111111111111" height="44.74285714285715" rx="2" fill="#4a86e8" opacity="0.8"/><rect x="1051.8755555555556" y="462.8571428571429" width="86.47111111111111" height="24.685714285714287" rx="2" fill="#4a86e8" opacity="0.41000000000000003"/><rect x="141.65333333333334" y="500.91428571428577" width="86.47111111111111" height="38.05714285714286" rx="2" fill="#4a86e8" opacity="0.67"/><rect x="255.4311111111111" y="500.91428571428577" width="86.47111111111111" height="38.05714285714286" rx="2" fill="#e0b13d" opacity="0.67"/><rect x="482.9866666666666" y="520.9714285714286" width="86.47111111111111" height="18" rx="2" fill="#e0b13d" opacity="0.28"/><rect x="596.7644444444444" y="520.9714285714286" width="86.47111111111111" height="18" rx="2" fill="#3fb98a" opacity="0.28"/><rect x="824.3199999999999" y="507.6000000000001" width="86.47111111111111" height="31.371428571428574" rx="2" fill="#3fb98a" opacity="0.54"/><rect x="938.0977777777777" y="507.6000000000001" width="86.47111111111111" height="31.371428571428574" rx="2" fill="#4a86e8" opacity="0.54"/><rect x="1051.8755555555556" y="494.2285714285715" width="86.47111111111111" height="44.74285714285715" rx="2" fill="#3fb98a" opacity="0.8"/><rect x="255.4311111111111" y="565.7142857142857" width="86.47111111111111" height="24.685714285714287" rx="2" fill="#4a86e8" opacity="0.41000000000000003"/><rect x="369.20888888888885" y="565.7142857142857" width="86.47111111111111" height="24.685714285714287" rx="2" fill="#e0b13d" opacity="0.41000000000000003"/><rect x="482.9866666666666" y="552.3428571428572" width="86.47111111111111" height="38.05714285714286" rx="2" fill="#4a86e8" opacity="0.67"/><rect x="596.7644444444444" y="552.3428571428572" width="86.47111111111111" height="38.05714285714286" rx="2" fill="#e0b13d" opacity="0.67"/><rect x="824.3199999999999" y="572.4" width="86.47111111111111" height="18" rx="2" fill="#e0b13d" opacity="0.28"/><rect x="938.0977777777777" y="572.4" width="86.47111111111111" height="18" rx="2" fill="#3fb98a" opacity="0.28"/>
</svg>