<svg xmlns="http://www.w3.org/2000/svg" viewBox="0 0 1280 720" width="1280" height="720">
  <rect width="1280" height="720" fill="#141606"/>
    <radialGradient id="g" cx="72%" cy="18%" r="75%">
      <stop offset="0%" stop-color="#c9d93c" stop-opacity="0.32"/>
      <stop offset="100%" stop-color="#c9d93c" stop-opacity="0"/>
    </radialGradient>
    <rect width="1280" height="720" fill="url(#g)"/>
  <text x="115.19999999999999" y="108" font-family="Archivo, Arial Narrow, sans-serif" font-weight="800" font-size="61.44" fill="#eef3d6">SANDBOXELS</text>
     <text x="115.19999999999999" y="159.2" font-family="IBM Plex Mono, ui-monospace, monospace" font-size="26.880000000000003" fill="#c9d93c">sand · water · lava · plant · steam</text>
     <rect x="115.19999999999999" y="216" width="59.04" height="59.04" fill="#c9d93c" opacity="0.32"/><rect x="443.2" y="216" width="59.04" height="59.04" fill="#d94f2b" opacity="0.32"/><rect x="640" y="216" width="59.04" height="59.04" fill="#c9d93c" opacity="0.32"/><rect x="836.8" y="216" width="59.04" height="59.04" fill="#d94f2b" opacity="0.32"/><rect x="115.19999999999999" y="281.6" width="59.04" height="59.04" fill="#4c8f4c" opacity="0.445"/><rect x="312" y="281.6" width="59.04" height="59.04" fill="#5f8fd9" opacity="0.445"/><rect x="443.2" y="281.6" width="59.04" height="59.04" fill="#5f8fd9" opacity="0.445"/><rect x="508.79999999999995" y="281.6" width="59.04" height="59.04" fill="#4c8f4c" opacity="0.445"/><rect x="640" y="281.6" width="59.04" height="59.04" fill="#4c8f4c" opacity="0.445"/><rect x="836.8" y="281.6" width="59.04" height="59.04" fill="#5f8fd9" opacity="0.445"/><rect x="1033.6" y="281.6" width="59.04" height="59.04" fill="#4c8f4c" opacity="0.445"/><rect x="115.19999999999999" y="347.2" width="59.04" height="59.04" fill="#6b6f72" opacity="0.5700000000000001"/><rect x="180.79999999999998" y="347.2" width="59.04" height="59.04" fill="#d8b45c" opacity="0.5700000000000001"/><rect x="312" y="347.2" width="59.04" height="59.04" fill="#d8b45c" opacity="0.5700000000000001"/><rect x="443.2" y="347.2" width="59.04" height="59.04" fill="#d8b45c" opacity="0.5700000000000001"/><rect x="508.79999999999995" y="347.2" width="59.04" height="59.04" fill="#6b6f72" opacity="0.5700000000000001"/><rect x="640" y="347.2" width="59.04" height="59.04" fill="#6b6f72" opacity="0.5700000000000001"/><rect x="705.5999999999999" y="347.2" width="59.04" height="59.04" fill="#d8b45c" opacity="0.5700000000000001"/><rect x="836.8" y="347.2" width="59.04" height="59.04" fill="#d8b45c" opacity="0.5700000000000001"/><rect x="902.3999999999999" y="347.2" width="59.04" height="59.04" fill="#6b6f72" opacity="0.5700000000000001"/><rect x="1033.6" y="347.2" width="59.04" height="59.04" fill="#6b6f72" opacity="0.5700000000000001"/><rect x="115.19999999999999" y="412.79999999999995" width="59.04" height="59.04" fill="#d94f2b" opacity="0.6950000000000001"/><rect x="180.79999999999998" y="412.79999999999995" width="59.04" height="59.04" fill="#c9d93c" opacity="0.6950000000000001"/><rect x="312" y="412.79999999999995" width="59.04" height="59.04" fill="#c9d93c" opacity="0.6950000000000001"/><rect x="377.59999999999997" y="412.79999999999995" width="59.04" height="59.04" fill="#d94f2b" opacity="0.6950000000000001"/><rect x="443.2" y="412.79999999999995" width="59.04" height="59.04" fill="#c9d93c" opacity="0.6950000000000001"/><rect x="508.79999999999995" y="412.79999999999995" width="59.04" height="59.04" fill="#d94f2b" opacity="0.6950000000000001"/><rect x="574.3999999999999" y="412.79999999999995" width="59.04" height="59.04" fill="#c9d93c" opacity="0.6950000000000001"/><rect x="640" y="412.79999999999995" width="59.04" height="59.04" fill="#d94f2b" opacity="0.6950000000000001"/><rect x="705.5999999999999" y="412.79999999999995" width="59.04" height="59.04" fill="#c9d93c" opacity="0.6950000000000001"/><rect x="836.8" y="412.79999999999995" width="59.04" height="59.04" fill="#c9d93c" opacity="0.6950000000000001"/><rect x="902.3999999999999" y="412.79999999999995" width="59.04" height="59.04" fill="#d94f2b" opacity="0.6950000000000001"/><rect x="1033.6" y="412.79999999999995" width="59.04" height="59.04" fill="#d94f2b" opacity="0.6950000000000001"/><rect x="1099.1999999999998" y="412.79999999999995" width="59.04" height="59.04" fill="#c9d93c" opacity="0.6950000000000001"/><rect x="115.19999999999999" y="478.4" width="59.04" height="59.04" fill="#5f8fd9" opacity="0.8200000000000001"/><rect x="180.79999999999998" y="478.4" width="59.04" height="59.04" fill="#4c8f4c" opacity="0.8200000000000001"/><rect x="246.39999999999998" y="478.4" width="59.04" height="59.04" fill="#5f8fd9" opacity="0.8200000000000001"/><rect x="312" y="478.4" width="59.04" height="59.04" fill="#4c8f4c" opacity="0.8200000000000001"/><rect x="377.59999999999997" y="478.4" width="59.04" height="59.04" fill="#5f8fd9" opacity="0.8200000000000001"/><rect x="443.2" y="478.4" width="59.04" height="59.04" fill="#4c8f4c" opacity="0.8200000000000001"/><rect x="508.79999999999995" y="478.4" width="59.04" height="59.04" fill="#5f8fd9" opacity="0.8200000000000001"/><rect x="574.3999999999999" y="478.4" width="59.04" height="59.04" fill="#4c8f4c" opacity="0.8200000000000001"/><rect x="640" y="478.4" width="59.04" height="59.04" fill="#5f8fd9" opacity="0.8200000000000001"/><rect x="705.5999999999999" y="478.4" width="59.04" height="59.04" fill="#4c8f4c" opacity="0.8200000000000001"/><rect x="771.2" y="478.4" width="59.04" height="59.04" fill="#5f8fd9" opacity="0.8200000000000001"/><rect x="836.8" y="478.4" width="59.04" height="59.04" fill="#4c8f4c" opacity="0.8200000000000001"/><rect x="902.3999999999999" y="478.4" width="59.04" height="59.04" fill="#5f8fd9" opacity="0.8200000000000001"/><rect x="968" y="478.4" width="59.04" height="59.04" fill="#4c8f4c" opacity="0.8200000000000001"/><rect x="1033.6" y="478.4" width="59.04" height="59.04" fill="#5f8fd9" opacity="0.8200000000000001"/><rect x="1099.1999999999998" y="478.4" width="59.04" height="59.04" fill="#4c8f4c" opacity="0.8200000000000001"/>
</svg>